<?xml version="1.0" encoding="UTF-8"?>
<svg width="883px" height="192px" viewBox="0 0 883 192" version="1.1" xmlns="http://www.w3.org/2000/svg" xmlns:xlink="http://www.w3.org/1999/xlink">
    <title>Full Logo / Color / Filled Black</title>
    <g id="Full-Logo-/-Color-/-Filled-Black" stroke="none" stroke-width="1" fill="none" fill-rule="evenodd">
        <g id="CHALLENGE" transform="translate(209, 53)" fill="#000000" fill-rule="nonzero">
            <path d="M39.4442877,86 C33.7244946,86 28.4503996,85.012137 23.6220028,83.0364109 C18.793606,81.0606849 14.6151857,78.2648461 11.0867419,74.6488947 C7.55829807,71.0329432 4.8283968,66.7646294 2.89703808,61.8439532 C0.965679361,56.923277 0,51.5179887 0,45.6280884 C0,39.3654096 1.09567466,33.4755093 3.28702398,27.9583875 C5.4783733,22.4412657 8.5796897,17.5951452 12.5909732,13.420026 C16.6022567,9.24490681 21.319229,5.964456 26.74189,3.5786736 C32.164551,1.1928912 38.1071932,0 44.5698166,0 C50.6610249,0 56.0651152,1.02514088 60.7820874,3.07542263 C65.4990597,5.12570438 69.4174894,7.84698743 72.5373766,11.2392718 C75.6572638,14.6315561 77.8114716,18.3779801 79,22.4785436 L63.2891396,29.4122237 C62.1006112,25.3862159 59.8721204,22.0871261 56.6036671,19.5149545 C53.3352139,16.9427828 49.1382228,15.656697 44.0126939,15.656697 C40.1499765,15.656697 36.6029619,16.402254 33.3716502,17.893368 C30.1403385,19.384482 27.3175835,21.4906805 24.903385,24.2119636 C22.4891866,26.9332466 20.6135402,30.1205028 19.2764457,33.7737321 C17.9393512,37.4269614 17.2708039,41.4156914 17.2708039,45.739922 C17.2708039,50.7351539 18.180771,55.0780234 20.0007052,58.7685306 C21.8206394,62.4590377 24.3834039,65.3107932 27.6889986,67.3237971 C30.9945933,69.336801 34.8758815,70.343303 39.3328632,70.343303 C44.6812412,70.343303 49.2496474,68.9826615 53.0380818,66.2613784 C56.8265162,63.5400954 59.5749882,60.1664499 61.2834979,56.1404421 L76.2143865,63.9687906 C74.5058768,68.0693541 71.8874001,71.7785002 68.3589563,75.0962289 C64.8305125,78.4139575 60.6149506,81.0606849 55.7122708,83.0364109 C50.809591,85.012137 45.3869299,86 39.4442877,86 Z" id="Path"></path>
            <polygon id="Path" points="84 85 95.6704545 2 113.06392 2 108.014205 37.8738255 140.556818 37.8738255 145.606534 2 163 2 151.329545 85 133.93608 85 138.424716 52.914094 105.882102 52.914094 101.393466 85"></polygon>
            <path d="M160,85 L199.611268,2 L222.532394,2 L239,85 L220.86338,85 L217.747887,68.0657718 L187.483099,68.0657718 L179.583099,85 L160,85 Z M194.38169,53.0255034 L214.966197,53.0255034 L207.84507,14.0322148 L212.407042,14.5892617 L194.38169,53.0255034 Z" id="Shape"></path>
            <polygon id="Path" points="248 85 259.697342 2 277.130879 2 267.570552 69.9597315 303 69.9597315 300.862986 85"></polygon>
            <polygon id="Path" points="309 85 320.697342 2 338.130879 2 328.570552 69.9597315 364 69.9597315 361.862986 85"></polygon>
            <polygon id="Path" points="370 85 381.689256 2 438 2 435.864463 17.0402685 396.975207 17.0402685 394.390083 35.8684564 431.031405 35.8684564 428.895868 50.9087248 392.254545 50.9087248 389.557025 69.9597315 428.446281 69.9597315 426.310744 85"></polygon>
            <polygon id="Path" points="436 85 447.652661 2 460.985994 2 496.504202 60.7127517 490.117647 62.3838926 498.633053 2 516 2 504.347339 85 490.901961 85 456.168067 25.8416107 461.882353 24.1704698 453.366947 85"></polygon>
            <path d="M558.217391,86 C552.869565,86 547.837409,85.0680537 543.120924,83.2041612 C538.404438,81.3402687 534.245018,78.6562635 530.642663,75.1521456 C527.040308,71.6480277 524.199275,67.4356307 522.119565,62.5149545 C520.039855,57.5942783 519,52.0771565 519,45.9635891 C519,39.6263546 520.132699,33.6805375 522.398098,28.1261378 C524.663496,22.5717382 527.820199,17.6883398 531.868207,13.4759428 C535.916214,9.26354573 540.669837,5.964456 546.129076,3.5786736 C551.588315,1.1928912 557.548913,0 564.01087,0 C569.952899,0 575.263587,1.00650195 579.942935,3.01950585 C584.622283,5.03250975 588.521739,7.71651495 591.641304,11.0715215 C594.76087,14.426528 596.877717,18.154313 597.991848,22.2548765 L582.171196,29.6358908 C580.98279,25.609883 578.73596,22.2735154 575.430707,19.626788 C572.125453,16.9800607 567.873188,15.656697 562.673913,15.656697 C558.811594,15.656697 555.283514,16.402254 552.089674,17.893368 C548.895833,19.384482 546.110507,21.4720416 543.733696,24.1560468 C541.356884,26.840052 539.518569,29.9713914 538.21875,33.550065 C536.918931,37.1287386 536.269022,41.005635 536.269022,45.1807542 C536.269022,50.2505418 537.234601,54.686606 539.165761,58.4889467 C541.09692,62.2912874 543.807971,65.2175986 547.298913,67.2678804 C550.789855,69.3181621 554.837862,70.343303 559.442935,70.343303 C563.305254,70.343303 566.870471,69.6163849 570.138587,68.1625488 C573.406703,66.7087126 576.117754,64.6025141 578.271739,61.8439532 C580.425725,59.0853923 581.725543,55.7676636 582.171196,51.8907672 L583.0625,44.9570871 L590.527174,51.6671001 L560.445652,51.6671001 L561.44837,37.1287386 L601,37.1287386 L599.997283,48.2002601 C599.40308,54.5374946 597.843297,60.0732553 595.317935,64.8075423 C592.792572,69.5418292 589.598732,73.4746424 585.736413,76.6059818 C581.874094,79.7373212 577.584692,82.0858257 572.868207,83.6514954 C568.151721,85.2171651 563.268116,86 558.217391,86 Z" id="Path"></path>
            <polygon id="Path" points="606 85 617.689256 2 674 2 671.864463 17.0402685 632.975207 17.0402685 630.390083 35.8684564 667.031405 35.8684564 664.895868 50.9087248 628.254545 50.9087248 625.557025 69.9597315 664.446281 69.9597315 662.310744 85"></polygon>
        </g>
        <g id="Logo-Mark-(Filled)">
            <polygon id="Path" fill="#FFA53D" points="21 24 102 24 98.9871924 48 99 48 95.9871924 72 96 72 92.9871924 96 93 96 89.9871924 120 90 120 86.9871924 144 87 144 83.9871924 168 84 168 80.9871924 192 0 192"></polygon>
            <polygon id="Path" fill="#FF4831" points="105 0 186 0 182.987192 24 183 24 179.987192 48 180 48 176.987192 72 177 72 173.987192 96 174 96 170.987192 120 171 120 167.987192 144 168 144 164.987192 168 84 168"></polygon>
            <path d="M162,45 L133.302803,77.3893408 C134.556369,77.2957864 135.45575,77.2490092 136.000947,77.2490092 C140.711784,77.2490092 144.970421,78.3140687 148.776858,80.4441876 C152.583294,82.5743065 155.594652,85.5663804 157.810932,89.4204095 C160.027212,93.2744386 161.135353,97.7774108 161.135353,102.929326 C161.135353,108.913474 159.634643,114.327939 156.633223,119.172721 C153.631803,124.017503 149.596782,127.866579 144.528159,130.719947 C139.459536,133.573316 133.774728,135 127.473734,135 C122.007572,135 117.13275,133.880449 112.849266,131.641347 C108.565783,129.402246 105.186701,126.271466 102.712021,122.249009 C100.23734,118.226552 99,113.530383 99,108.160502 C99,103.860634 99.7255088,99.8431308 101.176526,96.1079921 C102.627544,92.3728534 104.4761,88.905218 106.722196,85.7050859 C108.968292,82.5049538 111.274018,79.5772787 113.639375,76.9220608 L141.665878,45 L162,45 Z M128.457643,120.435931 C131.538571,120.435931 134.306436,119.682959 136.76124,118.177015 C139.216044,116.67107 141.168954,114.64498 142.619972,112.098745 C144.070989,109.55251 144.796498,106.773448 144.796498,103.761559 C144.796498,99.7787318 143.559158,96.6083223 141.084477,94.2503303 C138.609796,91.8923382 135.494084,90.7133421 131.73734,90.7133421 C128.656413,90.7133421 125.86867,91.4613606 123.374113,92.9573976 C120.879555,94.4534346 118.911737,96.4398943 117.470658,98.9167768 C116.029579,101.393659 115.309039,104.177675 115.309039,107.268824 C115.309039,111.251651 116.54638,114.441876 119.02106,116.839498 C121.495741,119.23712 124.641268,120.435931 128.457643,120.435931 Z M57.5262913,57 C62.7882736,57 67.4001861,57.9422952 71.3620289,59.8268856 C75.3238716,61.7114759 78.4206608,64.2964889 80.6523965,67.5819246 C82.8841322,70.8673602 84,74.6869311 84,79.0406372 C84,82.5477893 83.2936249,85.9088101 81.8808748,89.1236996 C80.4681247,92.3385891 78.5332713,95.1302016 76.0763146,97.4985371 C74.8478362,98.6827048 73.5246626,99.711923 72.1067939,100.586191 L71.9988029,100.651428 L71.9982622,100.682412 L72.128641,100.754991 C75.0145913,102.380656 77.3798078,104.358891 79.2242904,106.689694 C82.0395533,110.247237 83.4471847,114.656372 83.4471847,119.9171 C83.4471847,125.318921 82.01396,130.297464 79.1475105,134.852731 C76.281061,139.407997 72.262913,143.071359 67.0930665,145.842815 C61.9232201,148.614272 55.7961843,150 48.7119591,150 C42.528618,150 37.1335505,148.906534 32.5267566,146.719603 C27.9199628,144.532672 24.3471382,141.519343 21.8082829,137.679616 C19.2694276,133.839889 18,129.511378 18,124.694083 C18,120.501625 18.9162401,116.671977 20.7487203,113.205137 C22.5812006,109.738296 25.1098185,106.740085 28.3345742,104.210501 C30.0318141,102.879141 31.8524122,101.727845 33.7963686,100.756614 L33.954,100.679 L33.9397222,100.669239 C32.0504275,99.3958728 30.4686898,97.7342908 29.1945091,95.6844928 C27.0958585,92.308355 26.0465333,88.4635891 26.0465333,84.1501951 C26.0465333,79.0910273 27.4132154,74.5105657 30.1465798,70.4088101 C32.8799442,66.3070546 36.6268032,63.046814 41.3871568,60.6280884 C46.1475105,58.2093628 51.527222,57 57.5262913,57 Z M49.1726384,136.092328 C52.6328525,136.092328 55.6835738,135.412061 58.3248022,134.051528 C60.9660307,132.690995 63.023732,130.841678 64.497906,128.503576 C65.97208,126.165475 66.7091671,123.555267 66.7091671,120.672952 C66.7091671,116.823147 65.4090275,113.779584 62.8087483,111.542263 C60.2084691,109.304941 56.6765938,108.186281 52.2131224,108.186281 C48.8348069,108.186281 45.8352722,108.846391 43.2145184,110.166612 C40.5937645,111.486834 38.5411819,113.310956 37.0567706,115.638979 C35.5723592,117.967003 34.8301536,120.642718 34.8301536,123.666125 C34.8301536,127.374837 36.1200558,130.373049 38.6998604,132.660761 C41.279665,134.948472 44.770591,136.092328 49.1726384,136.092328 Z M53.6258725,94.2786086 C56.267101,94.2786086 58.5960912,93.6840052 60.6128432,92.4947984 C62.6295952,91.3055917 64.2112611,89.708225 65.3578409,87.7026983 C66.5044207,85.6971717 67.0777106,83.5052016 67.0777106,81.126788 C67.0777106,78.103381 66.0898092,75.6443433 64.1140065,73.7496749 C62.1382038,71.8550065 59.4918567,70.9076723 56.1749651,70.9076723 C53.6156352,70.9076723 51.3071196,71.4821196 49.2494183,72.6310143 C47.1917171,73.779909 45.5691019,75.3268856 44.3815728,77.2719441 C43.1940437,79.2170026 42.6002792,81.4190507 42.6002792,83.8780884 C42.6002792,86.8813394 43.6035365,89.3655722 45.6100512,91.3307867 C47.6165658,93.2960013 50.2885063,94.2786086 53.6258725,94.2786086 Z" id="Combined-Shape" fill="#FFFFFF"></path>
        </g>
    </g>
</svg>